<svg height='100px' width='100px'  fill="#000000" xmlns="http://www.w3.org/2000/svg" xmlns:xlink="http://www.w3.org/1999/xlink" version="1.1" x="0px" y="0px" viewBox="0 0 100 100" style="enable-background:new 0 0 100 100;" xml:space="preserve"><path d="M45.49,23.278c-1.002,0.253-2.684,0.911-2.684,2.469c0,0.553-0.448,1-1,1s-1-0.447-1-1c0-2.127,1.528-3.733,4.193-4.408  c4.533-1.146,6-3.7,6.061-3.809c0.177-0.316,0.514-0.519,0.877-0.519c0.552,0,1,0.447,1,1c0,0.186-0.05,0.359-0.138,0.508  C52.563,18.934,50.689,21.963,45.49,23.278z"></path><path d="M90.265,89.349V79.213c0-0.553-0.448-1-1-1h-9.075c0.636-0.839,1.028-1.873,1.028-3.005v-0.199  c0-1.644-0.807-3.092-2.034-4.005c1.227-0.913,2.034-2.361,2.034-4.005V66.8c0-1.644-0.807-3.093-2.034-4.006  c1.227-0.913,2.034-2.361,2.034-4.005V58.59c0-1.644-0.807-3.092-2.034-4.005c1.227-0.913,2.034-2.361,2.034-4.005v-0.199  c0-2.76-2.245-5.005-5.005-5.005h-7.74c1.753-1.493,2.869-3.711,2.869-6.188c0-4.011-2.919-7.354-6.744-8.014  c0.581-1.111,0.89-2.352,0.89-3.621c0-4.275-3.433-7.765-7.688-7.854c0.133-0.566,0.2-1.146,0.2-1.735  c0-4.229-3.441-7.671-7.671-7.671c-0.544,0-0.988,0.445-1,0.989c-0.01,0.473-0.264,4.659-5.905,6.017  c-4.68,1.128-7.364,3.888-7.364,7.571c0,1.517,0.442,2.96,1.255,4.184c-4.566,0.516-8.126,4.401-8.126,9.104  c0,2.932,1.39,5.541,3.54,7.219h-8.41c-2.76,0-5.005,2.245-5.005,5.005v0.199c0,1.644,0.807,3.092,2.034,4.005  c-1.227,0.913-2.034,2.361-2.034,4.005v0.199c0,1.644,0.807,3.092,2.034,4.005c-1.227,0.913-2.034,2.362-2.034,4.006V67  c0,1.644,0.807,3.092,2.034,4.005c-1.227,0.913-2.034,2.361-2.034,4.005v0.199c0,1.132,0.392,2.166,1.028,3.005h-9.076  c-0.552,0-1,0.447-1,1v10.136c0,0.553,0.448,1,1,1h78C89.817,90.349,90.265,89.902,90.265,89.349z M24.317,47.376h18.862v6.209  H24.317c-1.657,0-3.005-1.348-3.005-3.005v-0.199C21.312,48.724,22.66,47.376,24.317,47.376z M63.21,45.32H61.3  c-0.552,0-1,0.447-1,1v1.841c0,1.036-0.843,1.879-1.879,1.879s-1.879-0.843-1.879-1.879V46.32c0-0.553-0.448-1-1-1h-4.489  c-0.552,0-1,0.447-1,1v9.292c0,1.344-1.093,2.438-2.438,2.438c-1.344,0-2.437-1.094-2.437-2.438V46.32c0-0.553-0.448-1-1-1H38.35  c-3.949,0-7.162-3.213-7.162-7.162s3.213-7.162,7.162-7.162c0.347,0,0.723,0.033,1.15,0.102c0.452,0.076,0.896-0.171,1.077-0.593  c0.181-0.421,0.052-0.911-0.312-1.189c-1.402-1.071-2.206-2.691-2.206-4.444c0-3.811,4.079-5.204,5.833-5.626  c5.541-1.334,6.954-5.028,7.314-6.884C53.918,12.784,56,15.135,56,17.964c0,0.84-0.186,1.656-0.552,2.427  c-0.162,0.34-0.119,0.742,0.11,1.04c0.23,0.297,0.608,0.442,0.977,0.372c0.374-0.07,0.742-0.105,1.096-0.105  c3.229,0,5.857,2.627,5.857,5.856c0,1.419-0.521,2.792-1.466,3.864c-0.267,0.303-0.325,0.737-0.148,1.1  c0.178,0.363,0.57,0.578,0.958,0.56l0.125-0.008c0.084-0.006,0.168-0.013,0.253-0.013c3.381,0,6.131,2.751,6.131,6.132  S66.591,45.32,63.21,45.32z M76.212,53.585H52.054V47.32h2.489v0.841c0,2.139,1.74,3.879,3.879,3.879s3.879-1.74,3.879-3.879v-0.784  h13.912c1.657,0,3.005,1.348,3.005,3.005v0.199C79.217,52.238,77.869,53.585,76.212,53.585z M76.212,61.794H24.317  c-1.657,0-3.005-1.348-3.005-3.005V58.59c0-1.657,1.348-3.005,3.005-3.005h18.862v0.026c0,2.447,1.99,4.438,4.437,4.438  s4.438-1.99,4.438-4.438v-0.026h24.159c1.657,0,3.005,1.348,3.005,3.005v0.199C79.217,60.447,77.869,61.794,76.212,61.794z   M76.212,70.004H24.317c-1.657,0-3.005-1.348-3.005-3.005V66.8c0-1.657,1.348-3.006,3.005-3.006h51.895  c1.657,0,3.005,1.349,3.005,3.006V67C79.217,68.657,77.869,70.004,76.212,70.004z M76.212,78.213H24.317  c-1.657,0-3.005-1.348-3.005-3.005v-0.199c0-1.657,1.348-3.005,3.005-3.005h51.895c1.657,0,3.005,1.348,3.005,3.005v0.199  C79.217,76.866,77.869,78.213,76.212,78.213z M88.265,88.349h-76v-8.136h12.053h51.895h12.052V88.349z"></path></svg>