<svg height='100px' width='100px'  fill="#000000" xmlns="http://www.w3.org/2000/svg" xmlns:xlink="http://www.w3.org/1999/xlink" version="1.1" x="0px" y="0px" viewBox="0 0 100 100" style="enable-background:new 0 0 100 100;" xml:space="preserve"><path d="M49.6,86.7c20.3,0,36.8-16.5,36.8-36.8c0-20.3-16.5-36.8-36.8-36.8c-20.3,0-36.8,16.5-36.8,36.8  C12.8,70.2,29.3,86.7,49.6,86.7z M49.6,15.1c19.2,0,34.8,15.6,34.8,34.8S68.8,84.7,49.6,84.7S14.8,69.1,14.8,49.9  S30.4,15.1,49.6,15.1z"></path><path d="M31.4,75c1.2,0.3,2.3,0.5,3.1,1c0.8,0.5,1.6,1.3,2.4,2.2c1.2,1.3,2.5,2.7,4.2,3.2c1.7,0.5,3.4-0.1,5.1-0.6  c1.2-0.4,2.3-0.7,3.3-0.7c1,0,2.1,0.3,3.3,0.7c1.2,0.4,2.5,0.8,3.8,0.8c0.5,0,0.9-0.1,1.3-0.2c1.8-0.5,3-1.8,4.2-3.2  c0.8-0.9,1.6-1.7,2.4-2.2c0.9-0.5,2-0.7,3.1-1c1.7-0.4,3.5-0.8,4.8-2.1c1.3-1.3,1.7-3.1,2.1-4.8c0.3-1.2,0.5-2.3,1-3.1  c0.5-0.8,1.3-1.6,2.2-2.4c1.3-1.2,2.7-2.5,3.2-4.2c0.5-1.7-0.1-3.4-0.6-5.1c-0.4-1.2-0.7-2.3-0.7-3.3c0-1,0.3-2.1,0.7-3.3  c0.5-1.7,1.1-3.4,0.6-5.1c-0.5-1.8-1.8-3-3.2-4.2c-0.9-0.8-1.7-1.6-2.2-2.4c-0.5-0.9-0.7-2-1-3.1c-0.4-1.7-0.8-3.5-2.1-4.8  c-1.3-1.3-3.1-1.7-4.8-2.1c-1.2-0.3-2.3-0.5-3.1-1c-0.8-0.5-1.6-1.3-2.4-2.2c-1.2-1.3-2.5-2.7-4.2-3.2c-1.7-0.5-3.4,0.1-5.1,0.6  c-1.2,0.4-2.3,0.7-3.3,0.7c-1,0-2.1-0.3-3.3-0.7c-1.7-0.5-3.4-1.1-5.1-0.6c-1.8,0.5-3,1.8-4.2,3.2c-0.8,0.9-1.6,1.7-2.4,2.2  c-0.9,0.5-2,0.7-3.1,1c-1.7,0.4-3.5,0.8-4.8,2.1c-1.3,1.3-1.7,3.1-2.1,4.8c-0.3,1.2-0.5,2.3-1,3.1c-0.5,0.8-1.3,1.6-2.2,2.4  c-1.3,1.2-2.7,2.5-3.2,4.2c-0.5,1.7,0.1,3.4,0.6,5.1c0.4,1.2,0.7,2.3,0.7,3.3c0,1-0.3,2.1-0.7,3.3c-0.5,1.7-1.1,3.4-0.6,5.1  c0.5,1.8,1.8,3,3.2,4.2c0.9,0.8,1.7,1.6,2.2,2.4c0.5,0.9,0.7,2,1,3.1c0.4,1.7,0.8,3.5,2.1,4.8C27.8,74.2,29.6,74.6,31.4,75z   M25.2,64c-0.6-1.1-1.6-2-2.6-2.9c-1.2-1.1-2.3-2.1-2.6-3.3c-0.3-1.1,0.1-2.5,0.6-4c0.4-1.3,0.8-2.6,0.8-3.9s-0.4-2.6-0.8-3.9  c-0.5-1.5-0.9-2.9-0.6-4c0.3-1.2,1.4-2.2,2.6-3.3c0.9-0.9,1.9-1.8,2.6-2.9c0.6-1.1,0.9-2.4,1.2-3.7c0.3-1.5,0.7-3,1.5-3.8  c0.9-0.9,2.3-1.2,3.8-1.5c1.3-0.3,2.6-0.6,3.7-1.2c1.1-0.6,2-1.6,2.9-2.6c1.1-1.2,2.1-2.3,3.3-2.6c1.1-0.3,2.5,0.1,4,0.6  c1.3,0.4,2.6,0.8,3.9,0.8c1.3,0,2.6-0.4,3.9-0.8c1.5-0.5,2.9-0.9,4-0.6c1.2,0.3,2.2,1.4,3.3,2.6c0.9,0.9,1.8,1.9,2.9,2.6  c1.1,0.6,2.4,0.9,3.7,1.2c1.5,0.3,3,0.7,3.8,1.5s1.2,2.3,1.5,3.8c0.3,1.3,0.6,2.6,1.2,3.7c0.6,1.1,1.6,2,2.6,2.9  c1.2,1.1,2.3,2.1,2.6,3.3c0.3,1.1-0.1,2.5-0.6,4c-0.4,1.3-0.8,2.6-0.8,3.9s0.4,2.6,0.8,3.9c0.5,1.5,0.9,2.9,0.6,4  c-0.3,1.2-1.4,2.2-2.6,3.3c-0.9,0.9-1.9,1.8-2.6,2.9c-0.6,1.1-0.9,2.4-1.2,3.7c-0.3,1.5-0.7,3-1.5,3.8c-0.9,0.9-2.3,1.2-3.8,1.5  c-1.3,0.3-2.6,0.6-3.7,1.2c-1.1,0.6-2,1.6-2.9,2.6c-1.1,1.2-2.1,2.3-3.3,2.6c-1.1,0.3-2.5-0.1-4-0.6c-1.3-0.4-2.6-0.8-3.9-0.8  c-1.3,0-2.6,0.4-3.9,0.8c-1.5,0.5-2.9,0.9-4,0.6c-1.2-0.3-2.2-1.4-3.3-2.6c-0.9-0.9-1.8-1.9-2.9-2.6c-1.1-0.6-2.4-0.9-3.7-1.2  c-1.5-0.3-3-0.7-3.8-1.5c-0.9-0.9-1.2-2.3-1.5-3.8C26.2,66.4,25.9,65.1,25.2,64z"></path><path d="M37.1,49.9c0,6.9,5.6,12.5,12.5,12.5S62,56.8,62,49.9s-5.6-12.5-12.5-12.5S37.1,43,37.1,49.9z M60,49.9  c0,5.8-4.7,10.5-10.5,10.5s-10.5-4.7-10.5-10.5s4.7-10.5,10.5-10.5S60,44.1,60,49.9z"></path><path d="M50.3,34.1c-0.5-0.1-1.1,0.3-1.1,0.8c-0.1,0.5,0.3,1.1,0.8,1.1l1.3,0.2c0,0,0.1,0,0.1,0c0.5,0,0.9-0.4,1-0.9  c0.1-0.5-0.3-1.1-0.8-1.1L50.3,34.1z"></path><path d="M70,52.3l1.3,0.2c0,0,0.1,0,0.1,0c0.5,0,0.9-0.4,1-0.9c0.1-0.5-0.3-1.1-0.8-1.1l-1.3-0.2c-0.5-0.1-1.1,0.3-1.1,0.8  C69.1,51.7,69.5,52.2,70,52.3z"></path><path d="M38.5,29.8l1.3,0.2c0,0,0.1,0,0.1,0c0.5,0,0.9-0.4,1-0.9c0.1-0.5-0.3-1.1-0.8-1.1l-1.3-0.2c-0.5-0.1-1.1,0.3-1.1,0.8  C37.6,29.2,38,29.7,38.5,29.8z"></path><path d="M29.5,40.6l1.3,0.2c0,0,0.1,0,0.1,0c0.5,0,0.9-0.4,1-0.9c0.1-0.5-0.3-1.1-0.8-1.1l-1.3-0.2c-0.5-0.1-1.1,0.3-1.1,0.8  C28.6,40,29,40.5,29.5,40.6z"></path><path d="M41,34.6l0.9,1c0.2,0.2,0.5,0.3,0.8,0.3c0.2,0,0.5-0.1,0.7-0.2c0.4-0.4,0.5-1,0.1-1.4l-0.9-1c-0.4-0.4-1-0.5-1.4-0.1  C40.7,33.5,40.6,34.2,41,34.6z"></path><path d="M30.7,33c0.2,0.2,0.5,0.3,0.8,0.3c0.2,0,0.5-0.1,0.7-0.2c0.4-0.4,0.5-1,0.1-1.4l-0.9-1c-0.4-0.4-1-0.5-1.4-0.1  c-0.4,0.4-0.5,1-0.1,1.4L30.7,33z"></path><path d="M67.2,44.2c-0.4-0.4-1-0.5-1.4-0.1c-0.4,0.4-0.5,1-0.1,1.4l0.9,1c0.2,0.2,0.5,0.3,0.8,0.3c0.2,0,0.5-0.1,0.7-0.2  c0.4-0.4,0.5-1,0.1-1.4L67.2,44.2z"></path><path d="M36.3,38c0,0,0.1,0,0.1,0c0.5,0,0.9-0.4,1-0.9l0.2-1.3c0.1-0.5-0.3-1-0.9-1.1c-0.6-0.1-1,0.3-1.1,0.9l-0.2,1.3  C35.3,37.5,35.7,38,36.3,38z"></path><path d="M63,39.5c0.2,0.4,0.5,0.6,0.9,0.6c0.1,0,0.2,0,0.4-0.1l1.2-0.5c0.5-0.2,0.8-0.8,0.6-1.3c-0.2-0.5-0.8-0.8-1.3-0.6l-1.2,0.5  C63,38.4,62.8,39,63,39.5z"></path><path d="M73.7,45.1l-1.2,0.5c-0.5,0.2-0.8,0.8-0.6,1.3c0.2,0.4,0.5,0.6,0.9,0.6c0.1,0,0.2,0,0.4-0.1l1.2-0.5  c0.5-0.2,0.8-0.8,0.6-1.3C74.8,45.1,74.2,44.9,73.7,45.1z"></path><path d="M32,46.7c0.2,0.4,0.5,0.6,0.9,0.6c0.1,0,0.2,0,0.4-0.1l1.2-0.5c0.5-0.2,0.8-0.8,0.6-1.3c-0.2-0.5-0.8-0.8-1.3-0.6l-1.2,0.5  C32,45.6,31.8,46.2,32,46.7z"></path><path d="M50,30.1c0.1,0,0.2,0,0.4-0.1l1.2-0.5c0.5-0.2,0.8-0.8,0.6-1.3c-0.2-0.5-0.8-0.8-1.3-0.6l-1.2,0.5c-0.5,0.2-0.8,0.8-0.6,1.3  C49.2,29.9,49.6,30.1,50,30.1z"></path><path d="M67,35.1l1.3,0.2c0,0,0.1,0,0.1,0c0.5,0,0.9-0.4,1-0.9c0.1-0.5-0.3-1.1-0.8-1.1l-1.3-0.2c-0.5-0.1-1.1,0.3-1.1,0.8  C66.1,34.5,66.5,35,67,35.1z"></path><path d="M44.5,25.8l1.3,0.2c0,0,0.1,0,0.1,0c0.5,0,0.9-0.4,1-0.9c0.1-0.5-0.3-1.1-0.8-1.1l-1.3-0.2c-0.5-0.1-1.1,0.3-1.1,0.8  C43.5,25.2,43.9,25.7,44.5,25.8z"></path><path d="M56.5,26.9l1.3,0.2c0,0,0.1,0,0.1,0c0.5,0,0.9-0.4,1-0.9c0.1-0.5-0.3-1.1-0.8-1.1L56.8,25c-0.5-0.1-1.1,0.3-1.1,0.8  C55.6,26.3,56,26.9,56.5,26.9z"></path><path d="M71.7,42.1l1.3,0.2c0,0,0.1,0,0.1,0c0.5,0,0.9-0.4,1-0.9c0.1-0.5-0.3-1.1-0.8-1.1L72,40.1c-0.5-0.1-1.1,0.3-1.1,0.8  C70.8,41.5,71.2,42,71.7,42.1z"></path><path d="M61.8,32.1c0.3,0,0.5-0.1,0.7-0.3l0.9-1c0.4-0.4,0.3-1-0.1-1.4s-1-0.3-1.4,0.1l-0.9,1c-0.4,0.4-0.3,1,0.1,1.4  C61.4,32.1,61.6,32.1,61.8,32.1z"></path><path d="M57.5,35.2c-0.4,0.4-0.5,1-0.1,1.4l0.9,1c0.2,0.2,0.5,0.3,0.8,0.3c0.2,0,0.5-0.1,0.7-0.2c0.4-0.4,0.5-1,0.1-1.4l-0.9-1  C58.5,34.9,57.9,34.9,57.5,35.2z"></path><path d="M45.9,63.9l-1.2-0.5c-0.5-0.2-1.1,0-1.3,0.6c-0.2,0.5,0,1.1,0.6,1.3l1.2,0.5c0.1,0,0.2,0.1,0.4,0.1c0.4,0,0.8-0.2,0.9-0.6  C46.6,64.7,46.4,64.1,45.9,63.9z"></path><path d="M55.6,72.7l-1.2-0.5c-0.5-0.2-1.1,0-1.3,0.6s0,1.1,0.6,1.3l1.2,0.5c0.1,0,0.2,0.1,0.4,0.1c0.4,0,0.8-0.2,0.9-0.6  C56.4,73.4,56.2,72.9,55.6,72.7z"></path><path d="M65.5,69.2l-1.2-0.5c-0.5-0.2-1.1,0-1.3,0.6c-0.2,0.5,0,1.1,0.6,1.3l1.2,0.5c0.1,0,0.2,0.1,0.4,0.1c0.4,0,0.8-0.2,0.9-0.6  C66.3,70,66,69.4,65.5,69.2z"></path><path d="M66.9,64.2l-1.2-0.5c-0.5-0.2-1.1,0-1.3,0.6c-0.2,0.5,0,1.1,0.6,1.3l1.2,0.5c0.1,0,0.2,0.1,0.4,0.1c0.4,0,0.8-0.2,0.9-0.6  C67.6,65,67.4,64.4,66.9,64.2z"></path><path d="M53.9,68.8c0.5-0.3,0.7-0.9,0.4-1.4l-0.6-1.2c-0.3-0.5-0.9-0.7-1.4-0.4c-0.5,0.3-0.7,0.9-0.4,1.4l0.6,1.2  c0.2,0.3,0.5,0.5,0.9,0.5C53.6,68.9,53.7,68.9,53.9,68.8z"></path><path d="M73.4,54.9c-0.5,0.3-0.7,0.9-0.4,1.4l0.6,1.2c0.2,0.3,0.5,0.5,0.9,0.5c0.2,0,0.3,0,0.5-0.1c0.5-0.3,0.7-0.9,0.4-1.4  l-0.6-1.2C74.5,54.9,73.9,54.7,73.4,54.9z"></path><path d="M70.8,60.7c-0.3-0.5-0.9-0.7-1.4-0.4c-0.5,0.3-0.7,0.9-0.4,1.4l0.6,1.2c0.2,0.3,0.5,0.5,0.9,0.5c0.2,0,0.3,0,0.5-0.1  c0.5-0.3,0.7-0.9,0.4-1.4L70.8,60.7z"></path><path d="M65.6,53.8c0.2,0,0.3,0,0.5-0.1c0.5-0.3,0.7-0.9,0.4-1.4l-0.6-1.2c-0.3-0.5-0.9-0.7-1.4-0.4c-0.5,0.3-0.7,0.9-0.4,1.4  l0.6,1.2C64.9,53.7,65.3,53.8,65.6,53.8z"></path><path d="M29.3,51.5c0.2,0.3,0.5,0.5,0.9,0.5c0.2,0,0.3,0,0.5-0.1c0.5-0.3,0.7-0.9,0.4-1.3l-0.6-1.2c-0.3-0.5-0.9-0.7-1.3-0.4  c-0.5,0.3-0.7,0.9-0.4,1.3L29.3,51.5z"></path><path d="M59.7,65.2c-0.5-0.2-1.1,0.1-1.3,0.6L58,67c-0.2,0.5,0.1,1.1,0.6,1.3c0.1,0,0.2,0.1,0.3,0.1c0.4,0,0.8-0.3,0.9-0.7l0.5-1.3  C60.5,65.9,60.2,65.4,59.7,65.2z"></path><path d="M33.5,55.2l-1.3,0.2c-0.5,0.1-0.9,0.6-0.9,1.1c0.1,0.5,0.5,0.9,1,0.9c0,0,0.1,0,0.1,0l1.3-0.2c0.5-0.1,0.9-0.6,0.9-1.1  C34.6,55.5,34.1,55.1,33.5,55.2z"></path><path d="M24.1,45.3l1.3-0.2c0.5-0.1,0.9-0.6,0.9-1.1c-0.1-0.5-0.6-0.9-1.1-0.9l-1.3,0.2c-0.5,0.1-0.9,0.6-0.9,1.1  c0.1,0.5,0.5,0.9,1,0.9C24,45.3,24.1,45.3,24.1,45.3z"></path><path d="M63.5,60.2l1.3-0.2c0.5-0.1,0.9-0.6,0.9-1.1c-0.1-0.5-0.6-0.9-1.1-0.9l-1.3,0.2c-0.5,0.1-0.9,0.6-0.9,1.1  c0.1,0.5,0.5,0.9,1,0.9C63.4,60.2,63.4,60.2,63.5,60.2z"></path><path d="M44.2,69.7l-1.3,0.2c-0.5,0.1-0.9,0.6-0.9,1.1c0.1,0.5,0.5,0.9,1,0.9c0,0,0.1,0,0.1,0l1.3-0.2c0.5-0.1,0.9-0.6,0.9-1.1  C45.2,70,44.7,69.6,44.2,69.7z"></path><path d="M28.7,62.9c0.4,0,0.8-0.2,0.9-0.6c0.2-0.5,0-1.1-0.6-1.3l-1.2-0.5c-0.5-0.2-1.1,0-1.3,0.6s0,1.1,0.6,1.3l1.2,0.5  C28.5,62.9,28.6,62.9,28.7,62.9z"></path><path d="M49,75.2l-1.2-0.5c-0.5-0.2-1.1,0-1.3,0.6c-0.2,0.5,0,1.1,0.6,1.3l1.2,0.5c0.1,0,0.2,0.1,0.4,0.1c0.4,0,0.8-0.2,0.9-0.6  C49.7,76,49.5,75.4,49,75.2z"></path><path d="M37.4,71.3l-1.2-0.5c-0.5-0.2-1.1,0-1.3,0.6c-0.2,0.5,0,1.1,0.6,1.3l1.2,0.5c0.1,0,0.2,0.1,0.4,0.1c0.4,0,0.8-0.2,0.9-0.6  C38.2,72.1,38,71.5,37.4,71.3z"></path><path d="M26.7,54.4c0.2-0.5,0-1.1-0.6-1.3l-1.2-0.5c-0.5-0.2-1.1,0-1.3,0.6c-0.2,0.5,0,1.1,0.6,1.3l1.2,0.5c0.1,0,0.2,0.1,0.4,0.1  C26.2,55,26.6,54.8,26.7,54.4z"></path><path d="M32.7,65.2L31.6,66c-0.5,0.3-0.6,0.9-0.3,1.4c0.2,0.3,0.5,0.4,0.8,0.4c0.2,0,0.4-0.1,0.6-0.2l1.1-0.8  c0.5-0.3,0.6-0.9,0.3-1.4C33.8,65,33.1,64.9,32.7,65.2z"></path><path d="M38.2,60.5c-0.3-0.5-0.9-0.7-1.4-0.4c-0.5,0.3-0.7,0.9-0.4,1.4l0.6,1.2c0.2,0.3,0.5,0.5,0.9,0.5c0.2,0,0.3,0,0.5-0.1  c0.5-0.3,0.7-0.9,0.4-1.4L38.2,60.5z"></path></svg>