<svg height='100px' width='100px'  fill="#000000" xmlns="http://www.w3.org/2000/svg" xmlns:xlink="http://www.w3.org/1999/xlink" version="1.1" x="0px" y="0px" viewBox="0 0 100 100" style="enable-background:new 0 0 100 100;" xml:space="preserve"><path d="M50.6,15.5c-14.1,0-25.7,11.4-26,25.4c-2.4,0.1-4.3,2-4.3,4.4v1c0,2.4,2,4.4,4.4,4.4h0l4,32c0.1,0.5,0.5,0.9,1,0.9h41.7  c0.5,0,0.9-0.4,1-0.9l4-32.1c1.9-0.5,3.3-2.2,3.3-4.2v-1c0-2-1.3-3.6-3.1-4.2C76.4,27,64.8,15.5,50.6,15.5z M50.6,17.5  c13,0,23.7,10.5,24,23.4h-48C26.9,27.9,37.6,17.5,50.6,17.5z M26.7,50.7h5.9v30.9h-2L26.7,50.7z M39.4,50.7v30.9h-4.8V50.7H39.4z   M46.2,50.7v30.9h-4.8V50.7H46.2z M52.9,50.7v30.9h-4.8V50.7H52.9z M59.7,50.7v30.9h-4.8V50.7H59.7z M66.5,50.7v30.9h-4.8V50.7H66.5  z M70.5,81.6h-2V50.7h5.8L70.5,81.6z M77.7,45.3v1c0,1.3-1.1,2.4-2.4,2.4H25.6h-0.9c-1.3,0-2.4-1.1-2.4-2.4v-1  c0-1.3,1.1-2.4,2.4-2.4h50.6C76.6,42.9,77.7,44,77.7,45.3z"></path><path d="M48.7,33c0,0,0.1,0,0.1,0l1.3-0.2c0.5-0.1,0.9-0.6,0.8-1.1c-0.1-0.5-0.6-0.9-1.1-0.8L48.6,31c-0.5,0.1-0.9,0.6-0.8,1.1  C47.8,32.6,48.2,33,48.7,33z"></path><path d="M58.9,27.9c0,0,0.1,0,0.1,0l1.3-0.2c0.5-0.1,0.9-0.6,0.8-1.1c-0.1-0.5-0.6-0.9-1.1-0.8l-1.3,0.2c-0.5,0.1-0.9,0.6-0.8,1.1  C58,27.5,58.4,27.9,58.9,27.9z"></path><path d="M69.2,37.5c0,0,0.1,0,0.1,0l1.3-0.2c0.5-0.1,0.9-0.6,0.8-1.1c-0.1-0.5-0.6-0.9-1.1-0.8l-1.3,0.2c-0.5,0.1-0.9,0.6-0.8,1.1  C68.3,37.1,68.7,37.5,69.2,37.5z"></path><path d="M55.3,33.6c-0.4,0.4-0.3,1,0.1,1.4c0.2,0.2,0.4,0.2,0.7,0.2c0.3,0,0.6-0.1,0.8-0.3l0.9-1c0.4-0.4,0.3-1-0.1-1.4  c-0.4-0.4-1-0.3-1.4,0.1L55.3,33.6z"></path><path d="M65.5,31.3c0.3,0,0.6-0.1,0.8-0.3l0.9-1c0.4-0.4,0.3-1-0.1-1.4c-0.4-0.4-1-0.3-1.4,0.1l-0.9,1c-0.4,0.4-0.3,1,0.1,1.4  C65.1,31.3,65.3,31.3,65.5,31.3z"></path><path d="M43.7,33.9l-0.9,1c-0.4,0.4-0.3,1,0.1,1.4c0.2,0.2,0.4,0.2,0.7,0.2c0.3,0,0.6-0.1,0.8-0.3l0.9-1c0.4-0.4,0.3-1-0.1-1.4  S44.1,33.5,43.7,33.9z"></path><path d="M62.5,37.9c0,0,0.1,0,0.1,0c0.5-0.1,0.9-0.6,0.9-1.1l-0.2-1.3c-0.1-0.5-0.6-0.9-1.1-0.9c-0.5,0.1-0.9,0.6-0.9,1.1l0.2,1.3  C61.5,37.5,62,37.9,62.5,37.9z"></path><path d="M37,37.9l1.2,0.5c0.1,0,0.2,0.1,0.4,0.1c0.4,0,0.8-0.2,0.9-0.6c0.2-0.5-0.1-1.1-0.6-1.3l-1.2-0.5c-0.5-0.2-1.1,0.1-1.3,0.6  C36.3,37.2,36.5,37.7,37,37.9z"></path><path d="M49.3,36.6c-0.2,0.5,0.1,1.1,0.6,1.3l1.2,0.5c0.1,0,0.2,0.1,0.4,0.1c0.4,0,0.8-0.2,0.9-0.6c0.2-0.5-0.1-1.1-0.6-1.3  l-1.2-0.5C50,35.9,49.5,36.1,49.3,36.6z"></path><path d="M48.6,26.3l1.2,0.5c0.1,0,0.2,0.1,0.4,0.1c0.4,0,0.8-0.2,0.9-0.6c0.2-0.5-0.1-1.1-0.6-1.3l-1.2-0.5  c-0.5-0.2-1.1,0.1-1.3,0.6C47.8,25.5,48.1,26.1,48.6,26.3z"></path><path d="M33.5,33c0,0,0.1,0,0.1,0l1.3-0.2c0.5-0.1,0.9-0.6,0.8-1.1c-0.1-0.5-0.6-0.9-1.1-0.8L33.4,31c-0.5,0.1-0.9,0.6-0.8,1.1  C32.6,32.7,33.1,33,33.5,33z"></path><path d="M54.3,22.7c0,0,0.1,0,0.1,0l1.3-0.2c0.5-0.1,0.9-0.6,0.8-1.1c-0.1-0.5-0.6-0.9-1.1-0.8l-1.3,0.2c-0.5,0.1-0.9,0.6-0.8,1.1  C53.4,22.4,53.8,22.7,54.3,22.7z"></path><path d="M42.2,23.8c0,0,0.1,0,0.1,0l1.3-0.2c0.5-0.1,0.9-0.6,0.8-1.1c-0.1-0.5-0.6-0.9-1.1-0.8l-1.3,0.2c-0.5,0.1-0.9,0.6-0.8,1.1  C41.3,23.5,41.7,23.8,42.2,23.8z"></path><path d="M30.5,38.5c0,0,0.1,0,0.1,0l1.3-0.2c0.5-0.1,0.9-0.6,0.8-1.1c-0.1-0.5-0.6-0.9-1.1-0.8l-1.3,0.2c-0.5,0.1-0.9,0.6-0.8,1.1  C29.6,38.1,30,38.5,30.5,38.5z"></path><path d="M37.6,28.5c0.2,0.2,0.5,0.3,0.7,0.3c0.2,0,0.5-0.1,0.7-0.3c0.4-0.4,0.4-1,0.1-1.4l-0.9-1c-0.4-0.4-1-0.4-1.4-0.1  c-0.4,0.4-0.4,1-0.1,1.4L37.6,28.5z"></path><path d="M43.4,28.3l-0.9,1c-0.4,0.4-0.3,1,0.1,1.4c0.2,0.2,0.4,0.2,0.7,0.2c0.3,0,0.6-0.1,0.8-0.3l0.9-1c0.4-0.4,0.3-1-0.1-1.4  C44.4,27.9,43.8,27.9,43.4,28.3z"></path></svg>