<svg height='100px' width='100px'  fill="#000000" xmlns="http://www.w3.org/2000/svg" xmlns:xlink="http://www.w3.org/1999/xlink" version="1.1" x="0px" y="0px" viewBox="0 0 100 100" style="enable-background:new 0 0 100 100;" xml:space="preserve"><path d="M27.759,40.741c0,4.202,3.191,7.67,7.276,8.116l14.589,40.311c0.206,0.568,0.759,0.943,1.381,0.943c0.012,0,0.024,0,0.036,0  c0.635-0.015,1.184-0.417,1.365-1.002l12.565-40.253c4.082-0.449,7.27-3.916,7.27-8.115c0-2.857-1.457-5.443-3.854-6.929  c0.367-1.505,0.553-3.03,0.553-4.543c0-10.65-8.665-19.315-19.315-19.315S30.31,18.619,30.31,29.27c0,1.69,0.22,3.366,0.653,4.992  C28.943,35.805,27.759,38.175,27.759,40.741z M50.969,87.005L37.143,48.807c1.597-0.244,3.098-0.952,4.297-2.052  c2.581,1.215,5.33,1.83,8.185,1.83c3.011,0,5.994-0.712,8.68-2.065c1.247,1.247,2.852,2.041,4.586,2.293L50.969,87.005z   M49.625,11.954c8.138,0,14.964,5.65,16.808,13.229c-2,0.472-3.116,2.169-4.111,3.705c-1.182,1.822-2.01,2.93-3.55,2.93  s-2.368-1.107-3.55-2.93c-1.167-1.802-2.489-3.843-5.228-3.843c-2.737,0-4.059,2.042-5.226,3.843c-1.18,1.823-2.008,2.93-3.545,2.93  c-1.539,0-2.367-1.107-3.549-2.931c-1.107-1.709-2.369-3.613-4.833-3.805C34.723,17.555,41.523,11.954,49.625,11.954z   M32.654,35.521c0.383-0.241,0.557-0.709,0.424-1.142c-0.51-1.653-0.769-3.373-0.769-5.109c0-0.755,0.065-1.493,0.159-2.223  c1.526,0.009,2.353,1.112,3.529,2.928c1.166,1.801,2.489,3.843,5.227,3.843c2.736,0,4.058-2.041,5.224-3.843  c1.181-1.822,2.009-2.93,3.547-2.93c1.54,0,2.368,1.107,3.55,2.93c1.167,1.802,2.489,3.843,5.228,3.843s4.061-2.041,5.228-3.843  c0.972-1.5,1.711-2.503,2.798-2.816c0.085,0.693,0.142,1.395,0.142,2.111c0,1.586-0.229,3.189-0.68,4.765  c-0.134,0.466,0.086,0.96,0.521,1.173c2.134,1.047,3.46,3.167,3.46,5.534c0,3.4-2.767,6.167-6.167,6.167  c-1.857,0-3.599-0.827-4.776-2.269c-0.195-0.239-0.482-0.367-0.775-0.367c-0.165,0-0.333,0.041-0.485,0.127  c-2.566,1.43-5.476,2.186-8.412,2.186c-2.776,0-5.444-0.65-7.928-1.934c-0.401-0.207-0.895-0.119-1.201,0.218  c-1.171,1.296-2.837,2.039-4.57,2.039c-3.4,0-6.167-2.767-6.167-6.167C29.759,38.612,30.841,36.66,32.654,35.521z"></path></svg>