<svg height='100px' width='100px'  fill="#000000" xmlns="http://www.w3.org/2000/svg" xmlns:xlink="http://www.w3.org/1999/xlink" version="1.1" x="0px" y="0px" viewBox="0 0 100 100" style="enable-background:new 0 0 100 100;" xml:space="preserve"><path d="M76.296,37.528c0.015-0.274-0.084-0.542-0.273-0.742c-0.188-0.199-0.451-0.312-0.726-0.312h-1.408V16.77  c0-0.552-0.447-1-1-1h-7.122c-0.312,0-0.58,0.152-0.763,0.375l-0.858-5.305c-0.043-0.262-0.188-0.497-0.403-0.652  c-0.215-0.156-0.486-0.219-0.746-0.175l-6.812,1.12c-0.537,0.088-0.905,0.59-0.828,1.128l0.581,4.06  c-0.208-0.02-0.418,0.008-0.6,0.116c-0.229,0.135-0.395,0.354-0.461,0.611l-4.158,16.114V21.009c0-0.552-0.447-1-1-1h-2.001  l1.228-4.76c0.138-0.535-0.185-1.08-0.719-1.218l-6.896-1.78c-0.535-0.137-1.08,0.183-1.219,0.718l-4.111,15.93V16.77  c0-0.552-0.447-1-1-1h-7.123c-0.553,0-1,0.448-1,1v19.705h-1.245c-0.274,0-0.537,0.113-0.726,0.312  c-0.189,0.199-0.288,0.467-0.273,0.742l2.766,51.525C27.429,89.584,27.867,90,28.398,90H72.53c0.531,0,0.97-0.416,0.999-0.946  L76.296,37.528z M71.889,17.77v18.705h-5.122V17.77H71.889z M64.767,27.203v9.271h-0.107c-0.441,0-0.83,0.289-0.958,0.712  c-0.411,1.366-1.035,2.631-1.817,3.773l-1.347-9.331l3.04-11.78L64.767,27.203z M59.242,36.647l0.881,6.098  c0.012,0.084,0.047,0.158,0.078,0.233c-0.95,0.941-2.03,1.743-3.206,2.378L59.242,36.647z M62.331,12.149l0.99,6.121  c-0.098-0.07-0.206-0.128-0.329-0.16l-4.961-1.28l-0.556-3.882L62.331,12.149z M56.564,18.517l4.96,1.28l-6.854,26.554  c-1.261,0.409-2.589,0.636-3.952,0.662v-5.842L56.564,18.517z M48.719,46.899c-1.826-0.237-3.562-0.838-5.123-1.739V22.009h5.123  V46.899z M41.596,43.765c-0.102-0.086-0.206-0.17-0.305-0.258l0.305-1V43.765z M41.8,14.438l4.96,1.28l-1.108,4.292h-3.056  c-0.553,0-1,0.448-1,1v14.649l-1.889,6.188c-1.1-1.358-1.958-2.929-2.48-4.661c-0.127-0.422-0.516-0.711-0.957-0.711h-0.157  L41.8,14.438z M28.878,17.77h5.123v18.705h-5.123V17.77z M71.583,88H29.347l-2.659-49.525h8.857  c0.817,2.302,2.154,4.337,3.848,5.993c0.055,0.065,0.111,0.125,0.182,0.175c2.885,2.733,6.763,4.381,10.89,4.381  c6.675,0,12.704-4.302,14.919-10.549h8.858L71.583,88z"></path><path d="M50.341,54.614c-7.555,0-13.7,6.146-13.7,13.7s6.146,13.7,13.7,13.7c7.554,0,13.699-6.146,13.699-13.7  S57.895,54.614,50.341,54.614z M50.341,80.014c-6.451,0-11.7-5.249-11.7-11.7s5.249-11.7,11.7-11.7s11.699,5.249,11.699,11.7  S56.792,80.014,50.341,80.014z"></path></svg>