<svg height='100px' width='100px'  fill="#000000" xmlns="http://www.w3.org/2000/svg" xmlns:xlink="http://www.w3.org/1999/xlink" version="1.1" x="0px" y="0px" viewBox="0 0 100 100" style="enable-background:new 0 0 100 100;" xml:space="preserve"><path d="M13.4,37.1c0,2.4,1.9,4.3,4.2,4.4l5,42.4c0.3,2.9,3,5,6.1,5h42.4c3.1,0,5.7-2.2,6.1-5l5-42.4c2.3-0.1,4.2-2.1,4.2-4.4  c0-2.4-2-4.4-4.4-4.4H17.8C15.4,32.7,13.4,34.7,13.4,37.1z M78.9,52.7h-21c-2.4-1.8-5.2-2.8-8.2-2.8s-5.8,0.9-8.2,2.8H20.9  l-1.3-11.2h60.6L78.9,52.7z M76.6,72.5h-19c-0.2,0-0.4,0.1-0.6,0.2c-2.1,1.7-4.6,2.5-7.2,2.5s-5.2-0.9-7.2-2.5  c-0.2-0.1-0.4-0.2-0.6-0.2H23.3l-2.1-17.8h20.6c0.2,0,0.4-0.1,0.6-0.2c2.1-1.7,4.6-2.5,7.2-2.5s5.2,0.9,7.2,2.5  c0.2,0.1,0.4,0.2,0.6,0.2h21.1L76.6,72.5z M75.2,83.7c-0.2,1.8-2,3.2-4.1,3.2H28.7c-2.1,0-3.9-1.4-4.1-3.2l-1.1-9.1h17.9  c2.4,1.8,5.2,2.8,8.2,2.8s5.8-0.9,8.2-2.8h18.4L75.2,83.7z M84.5,37.1c0,1.3-1.1,2.4-2.4,2.4H17.8c-1.3,0-2.4-1.1-2.4-2.4  s1.1-2.4,2.4-2.4H82C83.4,34.7,84.5,35.8,84.5,37.1z"></path><path d="M45.4,20.1c-2.3,0-4.1,1.8-4.1,4.1s1.8,4.1,4.1,4.1c0.6,0,1-0.4,1-1s-0.4-1-1-1c-1.2,0-2.1-0.9-2.1-2.1s0.9-2.1,2.1-2.1  c2.3,0,4.1-1.8,4.1-4.1s-1.8-4.1-4.1-4.1c-0.6,0-1,0.4-1,1s0.4,1,1,1c1.2,0,2.1,0.9,2.1,2.1S46.6,20.1,45.4,20.1z"></path><path d="M54.4,20.1c-2.3,0-4.1,1.8-4.1,4.1s1.8,4.1,4.1,4.1c0.6,0,1-0.4,1-1s-0.4-1-1-1c-1.2,0-2.1-0.9-2.1-2.1s0.9-2.1,2.1-2.1  c2.3,0,4.1-1.8,4.1-4.1s-1.8-4.1-4.1-4.1c-0.6,0-1,0.4-1,1s0.4,1,1,1c1.2,0,2.1,0.9,2.1,2.1S55.6,20.1,54.4,20.1z"></path></svg>