<svg height='100px' width='100px'  fill="#000000" xmlns="http://www.w3.org/2000/svg" xmlns:xlink="http://www.w3.org/1999/xlink" version="1.1" x="0px" y="0px" viewBox="0 0 100 100" style="enable-background:new 0 0 100 100;" xml:space="preserve"><path d="M81.646,49.26l-0.2,0.045c1.58-2.549,2.447-5.505,2.447-8.529c0-8.385-6.383-15.32-14.658-16.096  c-2.624-8.54-10.557-14.444-19.536-14.444c-8.854,0-16.576,5.566-19.386,13.91c-8.143,2.369-13.782,9.837-13.782,18.353  c0,2.412,0.444,4.742,1.309,6.95L17,49.26c-0.351-0.081-0.727,0.039-0.969,0.313c-0.241,0.273-0.314,0.656-0.191,1l14,39  c0.143,0.397,0.52,0.662,0.941,0.662h37.084c0.422,0,0.799-0.265,0.941-0.662l14-39c0.123-0.344,0.05-0.727-0.192-1  C82.374,49.299,82,49.179,81.646,49.26z M67.162,88.235h-3.601l10.197-35.154l6.551-1.472L67.162,88.235z M36.91,88.213  L26.854,52.659l4.756-3.217l4.982,3.372l4.886,35.421h-4.567C36.909,88.228,36.912,88.22,36.91,88.213z M38.597,52.715l4.83-3.271  l4.909,3.323v35.469h-4.84L38.597,52.715z M50.336,52.766l4.907-3.323l4.832,3.272l-4.899,35.52h-4.84V52.766z M67.058,49.443  l4.742,3.212L61.488,88.207c-0.003,0.009,0,0.019-0.002,0.028h-4.291l4.886-35.422L67.058,49.443z M18.336,51.609l6.559,1.471  l9.942,35.155h-3.354L18.336,51.609z M78.573,49.95l-5.407,1.215l-5.547-3.758c-0.338-0.229-0.783-0.229-1.121,0l-5.347,3.62  l-5.347-3.62c-0.338-0.229-0.783-0.229-1.121,0l-5.347,3.62l-5.349-3.62c-0.338-0.229-0.783-0.229-1.121,0l-5.345,3.62l-5.351-3.62  c-0.338-0.229-0.781-0.229-1.121,0l-5.557,3.758l-5.236-1.174c-1.142-2.344-1.727-4.863-1.727-7.493  c0-7.79,5.271-14.602,12.82-16.564c0.335-0.087,0.602-0.342,0.704-0.674c2.396-7.79,9.487-13.024,17.644-13.024  c8.316,0,15.637,5.614,17.803,13.651c0.113,0.419,0.483,0.718,0.916,0.739c7.557,0.376,13.476,6.591,13.476,14.149  c0,3.288-1.15,6.493-3.24,9.024C78.615,49.846,78.601,49.9,78.573,49.95z"></path><path d="M73.41,38.318c0-2.895-2.355-5.25-5.25-5.25s-5.25,2.355-5.25,5.25s2.355,5.25,5.25,5.25S73.41,41.213,73.41,38.318z   M71.41,38.318c0,1.792-1.458,3.25-3.25,3.25s-3.25-1.458-3.25-3.25s1.458-3.25,3.25-3.25S71.41,36.526,71.41,38.318z"></path><path d="M55.455,23.021c0-2.895-2.355-5.25-5.25-5.25s-5.25,2.355-5.25,5.25s2.355,5.25,5.25,5.25S55.455,25.915,55.455,23.021z   M53.455,23.021c0,1.792-1.458,3.25-3.25,3.25s-3.25-1.458-3.25-3.25s1.458-3.25,3.25-3.25S53.455,21.229,53.455,23.021z"></path><path d="M44.086,40.185c0,2.895,2.355,5.25,5.25,5.25s5.25-2.355,5.25-5.25s-2.355-5.25-5.25-5.25S44.086,37.29,44.086,40.185z   M46.086,40.185c0-1.792,1.458-3.25,3.25-3.25s3.25,1.458,3.25,3.25s-1.458,3.25-3.25,3.25S46.086,41.977,46.086,40.185z"></path><path d="M35.196,39.138c0-2.895-2.355-5.25-5.25-5.25s-5.25,2.355-5.25,5.25s2.355,5.25,5.25,5.25S35.196,42.032,35.196,39.138z   M33.196,39.138c0,1.792-1.458,3.25-3.25,3.25s-3.25-1.458-3.25-3.25s1.458-3.25,3.25-3.25S33.196,37.346,33.196,39.138z"></path></svg>