<svg height='100px' width='100px'  fill="#000000" xmlns="http://www.w3.org/2000/svg" xmlns:xlink="http://www.w3.org/1999/xlink" version="1.1" x="0px" y="0px" viewBox="0 0 100 100" style="enable-background:new 0 0 100 100;" xml:space="preserve"><path d="M37.1,81.3h3.7c0.5,4.2,4.1,7.6,8.5,7.6s8-3.3,8.5-7.6h3.7c5,0,9.1-4.1,9.1-9.1V28.4c0-5-4.1-9.1-9.1-9.1h-3.7  c-0.5-4.2-4.1-7.6-8.5-7.6s-8,3.3-8.5,7.6h-3.7c-5,0-9.1,4.1-9.1,9.1v43.9C28,77.2,32.1,81.3,37.1,81.3z M68.5,28.4v43.9  c0,3.9-3.2,7.1-7.1,7.1h-3.6v-58h3.6C65.3,21.3,68.5,24.5,68.5,28.4z M49.2,13.7c3.6,0,6.6,2.9,6.6,6.6v60c0,3.6-2.9,6.6-6.6,6.6  s-6.6-2.9-6.6-6.6v-60C42.7,16.7,45.6,13.7,49.2,13.7z M30,28.4c0-3.9,3.2-7.1,7.1-7.1h3.6v58h-3.6c-3.9,0-7.1-3.2-7.1-7.1V28.4z"></path><path d="M48.7,66.4c-1.4,0.9-3.2,2-3.2,4.3s1.8,3.4,3.2,4.3c1.4,0.9,2.3,1.5,2.3,2.6c0,0.6,0.4,1,1,1s1-0.4,1-1  c0-2.3-1.8-3.4-3.2-4.3c-1.4-0.9-2.3-1.5-2.3-2.6c0-1.1,0.9-1.7,2.3-2.6c1.4-0.9,3.2-2,3.2-4.3c0-2.3-1.8-3.4-3.2-4.3  c-1.4-0.9-2.3-1.5-2.3-2.6c0-1.1,0.9-1.7,2.3-2.6c1.4-0.9,3.2-2,3.2-4.3c0-2.3-1.8-3.4-3.2-4.3c-1.4-0.9-2.3-1.5-2.3-2.6  c0-1.1,0.9-1.7,2.3-2.6c1.4-0.9,3.2-2,3.2-4.3s-1.8-3.4-3.2-4.3c-1.4-0.9-2.3-1.5-2.3-2.6s0.9-1.7,2.3-2.6c1.4-0.9,3.2-2,3.2-4.3  c0-0.6-0.4-1-1-1s-1,0.4-1,1c0,1.1-0.9,1.7-2.3,2.6c-1.4,0.9-3.2,2-3.2,4.3s1.8,3.4,3.2,4.3c1.4,0.9,2.3,1.5,2.3,2.6  c0,1.1-0.9,1.7-2.3,2.6c-1.4,0.9-3.2,2-3.2,4.3c0,2.3,1.8,3.4,3.2,4.3c1.4,0.9,2.3,1.5,2.3,2.6c0,1.1-0.9,1.7-2.3,2.6  c-1.4,0.9-3.2,2-3.2,4.3c0,2.3,1.8,3.4,3.2,4.3c1.4,0.9,2.3,1.5,2.3,2.6C51,64.9,50.1,65.5,48.7,66.4z"></path></svg>