<svg height='100px' width='100px'  fill="#000000" xmlns="http://www.w3.org/2000/svg" xmlns:xlink="http://www.w3.org/1999/xlink" version="1.1" x="0px" y="0px" viewBox="0 0 100 100" style="enable-background:new 0 0 100 100;" xml:space="preserve"><path d="M75.8,87c0.6,0,1-0.4,1-1V15.6c0-0.6-0.4-1-1-1H63.3c-0.3,0-0.6,0.1-0.8,0.4c-0.2,0.2-0.3,0.5-0.2,0.8  c0.1,0.5,0.2,1,0.2,1.5c0,4.2-3.4,7.6-7.6,7.6s-7.6-3.4-7.6-7.6c0-0.5,0.1-1,0.2-1.5c0.1-0.3,0-0.6-0.2-0.8  c-0.2-0.2-0.5-0.4-0.8-0.4H23.8c-0.6,0-1,0.4-1,1v38.5c0,0.3,0.1,0.6,0.3,0.8c0.2,0.2,0.5,0.3,0.8,0.2c0.3,0,0.5-0.1,0.8-0.1  c3.1,0,5.6,2.5,5.6,5.6c0,3.1-2.5,5.6-5.6,5.6c-0.3,0-0.5,0-0.8-0.1c-0.3,0-0.6,0-0.8,0.2c-0.2,0.2-0.3,0.5-0.3,0.8V86  c0,0.6,0.4,1,1,1h23.5c0.3,0,0.6-0.1,0.8-0.4c0.2-0.2,0.3-0.6,0.2-0.9c-0.1-0.5-0.2-0.9-0.2-1.3c0-3.1,2.5-5.6,5.6-5.6  s5.6,2.5,5.6,5.6c0,0.4-0.1,0.9-0.2,1.3c-0.1,0.3,0,0.6,0.2,0.9s0.5,0.4,0.8,0.4H75.8z M53.7,76.8c-4.2,0-7.6,3.4-7.6,7.6  c0,0.2,0,0.4,0,0.6H24.8V68.2c4.1-0.1,7.5-3.4,7.5-7.6S29,53.1,24.8,53V16.6h20.4c0,0.2,0,0.5,0,0.7c0,5.3,4.3,9.6,9.6,9.6  c5.3,0,9.6-4.3,9.6-9.6c0-0.2,0-0.5,0-0.7h10.3V85H61.3c0-0.2,0-0.4,0-0.6C61.3,80.2,57.9,76.8,53.7,76.8z"></path><path d="M68.2,60.8c0-3.5-2.8-6.3-6.3-6.3c-3.5,0-6.3,2.8-6.3,6.3s2.8,6.3,6.3,6.3C65.4,67.1,68.2,64.2,68.2,60.8z M57.6,60.8  c0-2.4,1.9-4.3,4.3-4.3s4.3,1.9,4.3,4.3s-1.9,4.3-4.3,4.3S57.6,63.1,57.6,60.8z"></path><path d="M42.5,32.9c-3.9,0-7,3.2-7,7s3.2,7,7,7s7-3.2,7-7S46.4,32.9,42.5,32.9z M42.5,45c-2.8,0-5-2.3-5-5s2.3-5,5-5s5,2.3,5,5  S45.3,45,42.5,45z"></path></svg>